<?xml version="1.0" encoding="UTF-8"?>
<svg id="Capa_1" xmlns="http://www.w3.org/2000/svg" viewBox="0 0 567.08 208.71">
  <defs>
    <style>
      .cls-1 {
        fill: #00a08f;
      }
    </style>
  </defs>
  <path class="cls-1" d="M256.7,125.79c16.7.3,28.9,6.7,37.5,19.7,3.5,5.3,5.1,11.2,5.6,17.5.5,6.7,0,13.3-2.4,19.7-3.1,8.2-8.6,14.5-15.9,19.3-7.6,5-16.1,7-25.1,6.7-7.6-.2-14.8-2-21.3-6.1-9.6-6-16.1-14.4-18.3-25.6-2.2-11.4-1.2-22.5,5.3-32.4,6.6-10,15.9-16.1,27.7-18.1,2.7-.5,5.4-.6,7-.8l-.1.1ZM273.7,182.29c-.2-5.8-1.2-12.2-2.7-18.5-1.9-7.7-4.5-15.2-8.7-22-1.5-2.5-3.3-4.7-5.9-6.2-2.1-1.3-4.3-1.7-6.7-1.1-3.1.7-4.8,2.9-5.8,5.7-1.6,4.5-1.9,9.3-1.3,14,.5,4.6,1.3,9.3,2.3,13.8,1.6,7.8,4,15.3,7.9,22.3,1.7,3.1,3.6,6.1,6.6,8.2,2.5,1.7,5.1,2.3,8,1.2,2.7-1,4-3.2,4.8-5.7,1.2-3.5,1.5-7.2,1.5-11.6v-.1Z"/>
  <path class="cls-1" d="M337.6,155.79c.8-.9,1.4-1.7,2.1-2.4,6.4-6.6,17.2-7.5,25.1-2,5.9,4,9.6,9.6,11.2,16.5,1.8,7.6,2,15.2-.7,22.6-3.3,9.2-9.9,15-19.6,16.8-6.5,1.2-12.3-.5-17.1-5.3-1.1-1.1-2.2-2.1-3.3-3-1.6-1.3-2.7-1.4-4.5-.2-1.3.9-2.5,1.9-3.6,3-5.5,5.5-12.1,6.4-19.4,4.4-.4-.1-.7-.3-1.1-.4-2.4-1.2-3.1-3.6-1.6-5.8.7-1,1.5-1.9,2.4-2.6,2.8-2.3,4.1-5.4,4.1-8.9v-36.3c0-2.5-.2-5-1.1-7.4-.6-1.6-1.6-2.7-3.4-3-1.7-.3-2.9-1.7-2.9-3,0-1.6.8-2.9,2.7-3.6,3.3-1.2,6.6-2.2,9.9-3.4,4.8-1.7,9.4-3.8,13.8-6.4.8-.5,1.7-.9,2.6-1.2,1.7-.6,3.1,0,3.7,1.6.5,1.5.9,3.1.9,4.7.1,3.5,0,6.9,0,10.4,0,4.9,0,9.8-.1,14.6v.5l-.1-.2ZM353,184.99c-.2-4.6-1.6-11-3.7-16.2-1-2.5-2.2-4.8-4-6.8-3-3.2-6.7-2.4-8,1.7-.5,1.7-.8,3.5-.8,5.2,0,7.1,1.8,13.8,5.1,20.2.9,1.8,2.1,3.6,3.9,4.7,2,1.3,4.3.8,5.7-1.2.4-.5.7-1.1.8-1.8.4-1.9.7-3.9,1-5.9v.1Z"/>
  <path class="cls-1" d="M465.7,169.59c-1.2,1.9-2.8,3.2-4.7,4.3-1.9,1.2-3.9,2.3-5.7,3.6-5.5,4.2-6.3,11.8-1.8,17,1.4,1.6,3.2,2.3,5.3,2.5.5,0,1,0,1.5.2,1.7.4,2.4,1.5,1.9,3.2-.5,1.8-1.6,3-3.1,4.1-2.8,1.9-5.9,2.9-9.4,3.1-4.8.3-9.5-.2-13.9-2.2-3.5-1.6-6.5-3.7-8.5-7-2.9-5.1-2.8-10.3-.5-15.5,1.3-2.9,3.4-5,6.1-6.7,5.3-3.4,11.2-4.8,17.1-6.4,3.1-.9,6.3-1.4,9.2-3,2.2-1.2,3.9-2.9,4.4-5.5.6-2.8-.7-5.5-3.1-6.9-2.4-1.3-5.4-1-7.5.9-1.5,1.3-2.5,3-3.4,4.8-1.4,2.9-3.4,5.3-6.5,6.3-3.7,1.2-6.9.2-8.7-2.6-2.1-3.4-1.7-7.2,1.2-10.2,2.4-2.5,5.3-3.9,8.6-4.8,8.9-2.4,17.8-3,26.8-.9,10.1,2.4,16.2,8.9,18.4,18.9.9,4.2,1.2,8.6,1.6,12.8.4,3.5.5,7,.8,10.5.3,2.8,1.6,5.1,3.7,7,.9.8,1.8,1.8,2.5,2.9,1.4,2.2.9,4.2-1.6,5-2.3.8-4.7,1.4-7.1,1.6-3.8.4-7.7.5-11.5.5-5.9,0-10-3.4-11.2-9.4-.6-2.7-.9-5.6-.9-8.4-.1-6.2,0-12.4,0-18.6v-1.1Z"/>
  <path class="cls-1" d="M531.9,208.19c-6.6,0-12.7-.6-18.7-3-3.3-1.3-6.4-3-8.7-5.8-3-3.7-2.8-9.2.4-12.2,4.1-3.8,10.6-3.4,14,1.1,1.5,2,2.6,4.4,3.7,6.7,1.8,3.8,4.4,6.7,8.5,7.9,2.7.8,5.5,1,8.2.2,1.4-.4,2.6-1.2,3.6-2.3,1.3-1.5,1.5-3.5.3-5.1-.8-1.1-1.8-2.1-2.9-2.9-2-1.3-4.2-2.4-6.4-3.5-5.9-2.9-11.8-5.7-17.6-8.7-2.2-1.2-4.3-2.8-6.1-4.6-7.6-7.2-6-19.1,3.2-24.2,4.2-2.3,8.7-3.6,13.4-4.2,7.4-1,14.8-.9,22.1.8,4,.9,7.6,2.6,10.6,5.4,1.6,1.5,2.8,3.2,2.8,5.5,0,3.3-2.2,5.9-5.4,6.4-4.1.5-7.8-1.3-9.8-4.9-.8-1.5-1.6-3.1-2.4-4.6-2.6-4.9-7.6-5.9-11.9-4.3-3.2,1.2-4,5-1.6,7.4,1.3,1.3,2.9,2.3,4.5,3.1,6.3,3.2,12.7,6.3,19.1,9.5,3.1,1.5,5.8,3.5,8.2,6,6.5,7,4.8,17.2-2,22.5-4.5,3.6-9.8,5.4-15.4,6.6-4.5.9-9.1,1.3-13.5,1.3l-.2-.1Z"/>
  <path class="cls-1" d="M412.8,155.29c.5-1,.8-1.8,1.2-2.6,5.4-10.9,13.3-19.4,24.1-25.1,5.4-2.9,11.2-4.5,17.2-5.3,2.6-.3,5.1-.6,7.7-.6,3.2,0,6.2.8,8.7,2.9,2.9,2.4,4,6.6,2.5,10.2-1.5,3.6-5,5.7-8.9,5.3-1.7-.2-3.5-.5-5.1-1.3-5.8-2.7-11.6-2.3-17.3-.3-12.6,4.3-21.2,12.8-25.7,25.4-2.1,5.9-3.2,11.9-3.1,18.2,0,2.8,0,5.6.3,8.3.3,2.6,1.6,4.7,3.6,6.4,1,.8,1.9,1.9,2.5,3,1.3,2.2.7,4.1-1.6,4.9-2.2.8-4.5,1.3-6.7,1.6-8.1.9-16.3.8-24.4-.6-1.7-.3-3.3-.8-4.8-1.5-2-.9-2.4-2.5-1.3-4.4.7-1.1,1.7-2.2,2.7-3.1,2.7-2.5,4.1-5.5,4.2-9.2,0-5,0-10-.2-15,0-1.9-.6-3.8-1.1-5.6-.4-1.4-1.4-2.4-3-2.6-.6-.1-1.3-.5-1.8-.9-1.8-1.4-1.8-3.8.1-5,.9-.6,1.9-.9,3-1.3,6.7-2.2,13-5,18.5-9.4.7-.5,1.4-.9,2.2-1.2,1.6-.6,2.8-.3,3.8,1.1,1.3,1.8,1.9,3.9,2.4,6,.1.5.2.9.4,1.7h-.1Z"/>
  <path d="M6.9,77.89v.1s0-.07.01-.1h-.01Z"/>
  <g>
    <path class="cls-1" d="M6.86,86.65C10.64,54.27,33.96,26.54,62.72,14.29v1.19c0,14.31,0,28.62,0,42.93,0,2.15,1.87,3.46,3.92,2.76,1.2-.41,1.83-1.3,1.83-2.62,0-5.35,0-10.69,0-16.04,0-9.87,0-19.75-.02-29.62,0-.75.23-1.11,1-1.38,6.4-2.28,12.97-3.96,19.88-5v54.82h31.59V6.37c3.22.67,6.31,1.19,9.32,1.97,3.58.94,7.09,2.13,10.64,3.17.72.21.92.56.92,1.24-.02,15.25-.02,30.5-.02,45.75,0,1.31.65,2.23,1.83,2.65,1.2.42,2.54.19,3.27-.79.41-.55.63-1.33.63-2.01.03-14.28.03-28.56.03-42.84,0-.36,0-.73,0-1.32,9.49,4.18,17.92,9.53,25.39,16.15,17.36,15.39,27.46,34.19,30.61,56.31H6.86Z"/>
    <path class="cls-1" d="M102.98,117.67v89.71h-21.66v-68.32c-.08,0-.15-.02-.23-.02-.61,2.21-1.22,4.42-1.82,6.63-4.24,15.74-8.48,31.48-12.72,47.21-1.28,4.76-2.58,9.53-3.83,14.3-.18.7-.5.91-1.26.91-5.18-.03-10.36-.03-15.54,0-.75,0-1.09-.19-1.28-.88-3.63-13.57-7.28-27.13-10.93-40.69-2.41-8.94-4.82-17.89-7.23-26.83-.05-.2-.14-.38-.38-.55v68.23H4.37v-89.7c.4,0,.74,0,1.09,0,10.59.01,21.18.03,31.77.05,2.23,0,4.46.08,6.68.06.67,0,.86.22.99.81,2.31,10.8,4.66,21.59,6.99,32.38.74,3.42,1.47,6.84,2.21,10.26.04.17.12.34.25.72.92-3.88,1.78-7.54,2.65-11.2,2.19-9.24,4.39-18.48,6.58-27.73.36-1.51.75-3.01,1.05-4.53.12-.59.41-.71.99-.71,3.41,0,6.82-.06,10.22-.07,8.62-.02,17.24-.03,25.87-.05.39,0,.78,0,1.27,0Z"/>
    <path class="cls-1" d="M153.93,118.06v19.82c.65,0,1.22,0,1.79,0,3.77-.07,7.53-.14,11.3-.23,3.45-.08,6.22-1.55,8.52-3.81,2.51-2.46,3.71-5.52,3.97-8.82.19-2.34-.06-4.71-.12-7.07,0-.15,0-.3,0-.56h.99c8.59,0,17.18.01,25.77-.02.9,0,1.15.28,1.28,1.05.85,4.95.9,9.87-.79,14.69-2.62,7.44-8.15,12.28-15.94,15.03-.27.1-.55.18-.98.32,6.29,19.54,12.58,39.07,18.91,58.72-.51,0-.83,0-1.16,0-8.95,0-17.9,0-26.85.01-.7,0-1.02-.16-1.22-.82-4.89-16.4-9.8-32.78-14.71-49.17-.33-1.11-.62-2.23-1-3.32-.09-.26-.48-.62-.74-.62-3.18-.04-6.35-.03-9.65-.03v54.13h-28.56v-89.29h29.2Z"/>
    <path class="cls-1" d="M210.35,91.77v21.12H0v-21.12h210.35Z"/>
    <path class="cls-1" d="M116.81,57.5h-23.31V0h23.31v57.5Z"/>
  </g>
</svg>